<svg xmlns="http://www.w3.org/2000/svg" xmlns:xlink="http://www.w3.org/1999/xlink" width="1366" height="1137" viewBox="0 0 1366 1137">
  <defs>
    <clipPath id="clip-path">
      <rect id="Rectangle_10" data-name="Rectangle 10" width="1366" height="1137" transform="translate(554 105)" fill="#fff" stroke="#707070" stroke-width="1"/>
    </clipPath>
    <linearGradient id="linear-gradient" x1="0.74" y1="0.26" x2="0.633" y2="0.6" gradientUnits="objectBoundingBox">
      <stop offset="0" stop-color="#fff" stop-opacity="0.835"/>
      <stop offset="1" stop-color="#006cf9"/>
    </linearGradient>
    <radialGradient id="radial-gradient" cx="0.52" cy="1.573" r="2.446" gradientUnits="objectBoundingBox">
      <stop offset="0" stop-color="#003c4a"/>
      <stop offset="1" stop-color="#001513"/>
    </radialGradient>
    <radialGradient id="radial-gradient-2" cx="0.519" cy="0.348" r="3.261" gradientUnits="objectBoundingBox">
      <stop offset="0" stop-color="#78b521"/>
      <stop offset="1" stop-color="#004416"/>
    </radialGradient>
    <radialGradient id="radial-gradient-3" cx="0.5" cy="0.5" r="0.77" gradientUnits="objectBoundingBox">
      <stop offset="0" stop-color="#001a16" stop-opacity="0.2"/>
      <stop offset="1" stop-color="#001a16" stop-opacity="0.2"/>
    </radialGradient>
    <radialGradient id="radial-gradient-4" cx="0.5" cy="0.5" r="0.762" xlink:href="#radial-gradient-3"/>
    <radialGradient id="radial-gradient-5" cx="0.5" cy="0.5" r="0.756" xlink:href="#radial-gradient-3"/>
    <radialGradient id="radial-gradient-6" cx="0.5" cy="0.5" r="0.758" xlink:href="#radial-gradient-3"/>
    <radialGradient id="radial-gradient-7" cx="0.5" cy="0.5" r="0.775" xlink:href="#radial-gradient-3"/>
    <radialGradient id="radial-gradient-8" cx="0.5" cy="0.5" r="0.765" xlink:href="#radial-gradient-3"/>
    <linearGradient id="linear-gradient-2" y1="0.5" x2="1" y2="0.5" gradientUnits="objectBoundingBox">
      <stop offset="0" stop-color="#6d5840"/>
      <stop offset="0.5" stop-color="#483318"/>
      <stop offset="1" stop-color="#282913"/>
    </linearGradient>
    <linearGradient id="linear-gradient-3" x1="0.222" y1="0.288" x2="0.588" y2="0.924" gradientUnits="objectBoundingBox">
      <stop offset="0" stop-color="#2262b9"/>
      <stop offset="0.372" stop-color="#2262b9"/>
      <stop offset="1" stop-color="#58a525"/>
    </linearGradient>
    <radialGradient id="radial-gradient-9" cx="0.5" cy="0.5" r="0.462" gradientUnits="objectBoundingBox">
      <stop offset="0" stop-color="#b17967"/>
      <stop offset="0.5" stop-color="#8d4030"/>
      <stop offset="1" stop-color="#7a1d14"/>
    </radialGradient>
    <linearGradient id="linear-gradient-6" y1="0.5" x2="1" y2="0.5" gradientUnits="objectBoundingBox">
      <stop offset="0" stop-color="#f37f5f"/>
      <stop offset="0.5" stop-color="#ec1c24"/>
      <stop offset="1" stop-color="#d0232a"/>
    </linearGradient>
    <linearGradient id="linear-gradient-7" x1="0.388" y1="0.269" x2="0.571" y2="0.761" xlink:href="#linear-gradient-6"/>
  </defs>
  <g id="drawing-football-hero" transform="translate(-554 -105)" clip-path="url(#clip-path)">
    <g id="banner-drawings" transform="translate(349.845 206.72)">
      <g id="Group_151" data-name="Group 151" transform="translate(242.081 -219.837)">
        <path id="Path_142" data-name="Path 142" d="M1740.9,641.32s-49.378-104.791-275.795-178.581-237.087-168.27-101.609-191.9c33.87-5.908,45.664-31.391,35.457-64.534-30.617-99.425-259.237-267.78-683.818-183.343C496.81,66.375,380.987,131.27,324.654,197.27c-89.734,105.129-28.515,213.057,9.8,241.434C396.822,484.894-68.7,522.387,8.714,701.172S2079.467,1051.219,1740.9,641.32Z" transform="translate(1885.187 523.229) rotate(146)" opacity="0.746" fill="url(#linear-gradient)"/>
        <path id="Path_38" data-name="Path 38" d="M929.272,342.329S902.915,286.392,782.056,247,655.5,157.184,727.818,144.569c18.079-3.153,24.375-16.756,18.927-34.447C730.4,57.049,608.367-32.816,381.731,12.255,265.191,35.43,203.366,70.07,173.3,105.3c-47.9,56.116-15.221,113.727,5.231,128.874,33.292,24.656-215.2,44.67-173.876,140.1S1109.994,561.128,929.272,342.329Z" transform="matrix(0.53, -0.848, 0.848, 0.53, 37.136, 725.341)" fill="#006cf9" opacity="0.632"/>
      </g>
      <g id="Group_100" data-name="Group 100" transform="translate(408.233 246.542)">
        <g id="Group_9" data-name="Group 9" transform="translate(0)">
          <path id="Path_14" data-name="Path 14" d="M1427.15,762.539H25.1l-3.4-13.61L185,308.632l1084.86-.228,160.694,440.525Z" transform="translate(-21.696 -294.795)" fill="url(#radial-gradient)"/>
          <path id="Path_15" data-name="Path 15" d="M1430.553,758.1H21.7L185,304.191l1084.86-.225Z" transform="translate(-21.696 -303.967)" fill="url(#radial-gradient-2)"/>
          <g id="Group_6" data-name="Group 6" transform="translate(125.922)">
            <path id="Path_16" data-name="Path 16" d="M62.753,757.974h115.63L286.693,304.028l-89.048.018Z" transform="translate(-62.753 -303.84)" fill="url(#radial-gradient-3)"/>
            <path id="Path_17" data-name="Path 17" d="M309.144,304.016l-89.064.015L138.825,758H254.482Z" transform="translate(94.489 -303.866)" fill="url(#radial-gradient-4)"/>
            <path id="Path_18" data-name="Path 18" d="M331.589,304l-89.076.018-27.6,454h115.68Z" transform="translate(251.764 -303.89)" fill="url(#radial-gradient-5)"/>
            <path id="Path_19" data-name="Path 19" d="M371.6,303.992l-89.09.015,26.079,454.042H424.3Z" transform="translate(391.495 -303.914)" fill="url(#radial-gradient-6)"/>
            <path id="Path_20" data-name="Path 20" d="M488.88,303.967l-89.132.021L533.256,758.1H649.008Z" transform="translate(633.816 -303.967)" fill="url(#radial-gradient-7)"/>
            <path id="Path_21" data-name="Path 21" d="M430.237,303.98l-89.11.018,79.784,454.078H536.639Z" transform="translate(512.647 -303.941)" fill="url(#radial-gradient-8)"/>
          </g>
          <path id="Path_22" data-name="Path 22" d="M174.426,312.363,48.2,700.372l1246.448-.025L1170.679,312.16Zm1108.341,382L60.1,694.394,181.185,316.2l982.7-.19Z" transform="translate(33.082 -287.031)" fill="#fff"/>
          <path id="Path_23" data-name="Path 23" d="M259.07,312.608l-7.1,0L249.9,697.436h8.872Z" transform="translate(449.999 -286.105)" fill="#fff"/>
          <path id="Path_24" data-name="Path 24" d="M338.954,346.815c-68.636.006-126.551,29.02-129.464,66.229-3.046,38.9,54.669,71.74,129.038,71.734,74.384-.006,132.314-32.863,129.5-71.765C465.342,375.8,407.6,346.8,338.954,346.815ZM338.543,480.5c-69.946.006-124.364-30.836-121.65-67.462,2.6-35.123,57.2-62.564,122.048-62.576s119.3,27.422,121.689,62.548C463.115,449.643,408.5,480.5,338.543,480.5Z" transform="translate(366.236 -215.4)" fill="#fff"/>
          <path id="Path_25" data-name="Path 25" d="M260.85,380.735c-7.664,0-13.841-3.318-13.8-7.395.046-4.058,6.241-7.324,13.835-7.324s13.777,3.263,13.8,7.321C274.7,377.413,268.508,380.735,260.85,380.735Z" transform="translate(444.12 -175.711)" fill="#fff"/>
          <g id="Group_7" data-name="Group 7" transform="translate(98.648 28.981)">
            <path id="Path_26" data-name="Path 26" d="M54.4,429.66l-.54,1.69C69.735,433.791,80.322,441.7,81,451.795h2.831C83.328,440.778,71.765,432.169,54.4,429.66Z" transform="translate(-53.86 -73.14)" fill="#fff"/>
            <path id="Path_27" data-name="Path 27" d="M90.079,328.018l.359-1.129c14.142-1.644,26.367-6.885,31.391-13.473H124.1C118.835,320.6,105.488,326.337,90.079,328.018Z" transform="translate(21.005 -313.416)" fill="#fff"/>
            <path id="Path_28" data-name="Path 28" d="M154.309,350.127l-.65,3.046c27.345,11.866,43.128,30.845,39.1,52.722-4.131,22.45-28.131,42.9-62.331,56.181l-.742,3.472c37.286-13.749,63.6-35.611,67.959-59.653C201.884,382.508,184.316,362.325,154.309,350.127Z" transform="translate(102.881 -237.534)" fill="#fff"/>
            <path id="Path_29" data-name="Path 29" d="M134.763,332.875l-1.34,4.151L305.187,337,256.809,560.761l-195.584.009-1.746,5.412,205.751-.009,49.226-233.329Z" transform="translate(-42.248 -273.257)" fill="#fff"/>
            <path id="Path_30" data-name="Path 30" d="M103.217,350.332l-.7,2.178,87.04-.015L159.94,462.014l-92.766.006-.8,2.48,97.432-.006L194.39,350.32Z" transform="translate(-27.989 -237.135)" fill="#fff"/>
          </g>
          <g id="Group_8" data-name="Group 8" transform="translate(1010.76 28.797)">
            <path id="Path_31" data-name="Path 31" d="M468.92,429.647l.534,1.687c-15.905,2.448-26.554,10.357-27.287,20.466H439.33C439.9,440.777,451.524,432.162,468.92,429.647Z" transform="translate(-169.206 -72.982)" fill="#fff"/>
            <path id="Path_32" data-name="Path 32" d="M436.455,327.955l-.359-1.135c-14.145-1.632-26.349-6.873-31.336-13.464l-2.282,0C407.711,320.548,421.038,326.274,436.455,327.955Z" transform="translate(-245.377 -313.356)" fill="#fff"/>
            <path id="Path_33" data-name="Path 33" d="M395.535,350.095l.629,3.049c-27.431,11.872-43.331,30.86-39.432,52.743,4.005,22.457,27.891,42.9,62.042,56.187l.715,3.469c-37.224-13.746-63.429-35.6-67.646-59.656C347.739,382.495,365.442,362.3,395.535,350.095Z" transform="translate(-351.255 -237.416)" fill="#fff"/>
            <path id="Path_34" data-name="Path 34" d="M540.732,332.8l1.312,4.151-171.893.03,47.086,223.825,195.758-.012,1.716,5.415-205.926.015L360.9,332.829Z" transform="translate(-331.33 -273.168)" fill="#fff"/>
            <path id="Path_35" data-name="Path 35" d="M486.568,350.274l.692,2.178-87.119.012,29,109.558,92.852-.009.788,2.483-97.527.009L395.316,350.286Z" transform="translate(-260.184 -237.046)" fill="#fff"/>
          </g>
        </g>
      </g>
      <g id="Group_150" data-name="Group 150" transform="translate(647.404 120.972)">
        <path id="Path_36" data-name="Path 36" d="M1477.958,527.189l5.721,2.044c2.346,10.3,14.824,29.063,27.8,48.236l4.788,8.779c2.282,4.229,5.084,6.977,8.779,7.183h13.567c2.239-2.627,1.735-8.555,0-15.962l-19.154-7.981L1501.9,517.612l-14.366-11.971Z" transform="translate(-1016.377 -408.151)" fill="#ebc7bd"/>
        <path id="Path_40" data-name="Path 40" d="M1407.625,808.222l-2.889,1.445-1.857-1.032v-2.374l-2.064-.825-1.961,1.239-2.58-1.754.206-3.406-2.374-.928-1.858,1.961-2.373-1.754.31-3.509-11.146-11.972-5.366.31-1.961-2.374.929-3.3-2.27-2.993-2.787,1.341-1.239-2.167.723-2.683,1.135-.413,5.676,6.5,15.274,14.552s13.829,10.733,14.138,10.939S1407.625,808.222,1407.625,808.222Z" transform="translate(-986.081 -480.729)" fill="#231f20"/>
        <path id="Path_86" data-name="Path 86" d="M1311.383,424.924c-.8-3.193-36.712-15.962-36.712-15.962V380.231l59.058,11.173c7.709-1.574,30.8-1.676,37.609,11.637l25.44,17.893,14.366,9.577,30.327,46.289-19.952,18.355-29.53-31.125c-11.505,3.324-20.879,7.691-25.539,14.365-3.056,9.153-3.92,17.466,0,23.944l-25.539,6.384L1305.8,490.368l-23.943,6.385,1.6-12.131,2.395-18.2C1291.8,450.458,1300.106,436.452,1311.383,424.924Z" transform="translate(-961.198 -374.11)" fill="#ba0101"/>
        <path id="Path_87" data-name="Path 87" d="M1418.393,618.737c6.085,15.3,11.149,29.312,10.375,35.915l-6.661,17.124-24.465,50.713s3.192,19.953,0,17.558-18.356-15.164-18.356-15.164l24.741-67.041c-9.152-8.14-16.465-18.982-22.347-31.924C1393.025,619.433,1405.116,616.37,1418.393,618.737Z" transform="translate(-989.594 -438.633)" fill="#ebc7bd"/>
        <path id="Path_88" data-name="Path 88" d="M1384.922,548.9l30.085,50.925L1378.295,607,1363,552.771C1359.751,547.9,1370.313,547.628,1384.922,548.9Z" transform="translate(-985.013 -419.717)" fill="#f0f0f0"/>
        <path id="Path_89" data-name="Path 89" d="M1316.3,597.916l17.558,15.961,20.557,74.223,14.959-20.651-3.592-53.572-11.367-40.3C1337.088,576.417,1323.591,583.628,1316.3,597.916Z" transform="translate(-972.496 -426.59)" fill="#ebc7bd"/>
        <path id="Path_90" data-name="Path 90" d="M1257.128,408.962l-27.135,30.328,4.789,14.366-4.789,3.991-3.99,4.789h-5.587l-10.375-7.981,7.183-18.755,31.126-55.468h8.779Z" transform="translate(-943.655 -374.11)" fill="#ebc7bd"/>
        <path id="Path_93" data-name="Path 93" d="M1330.059,802.245l38.907,4.777c3.831,3.232,7.093,6.718,6.4,11.983q.537,13.44-9.189,18l-39.6-3.332Z" transform="translate(-975.285 -488.659)" fill="#e3c3ba"/>
        <path id="Path_94" data-name="Path 94" d="M1367.314,823.908s-6.812,1.548-18.886-.929c-6.918-1.418-14.339-4.97-19.42-7.746L1326.57,837.2l39.6,3.332a15.192,15.192,0,0,0,8.71-11.35A23.192,23.192,0,0,1,1367.314,823.908Z" transform="translate(-975.285 -492.184)" fill="#231f20" opacity="0.336" style="mix-blend-mode: overlay;isolation: isolate"/>
        <path id="Path_95" data-name="Path 95" d="M869.322,863.075s-25.077.922-5.485,7.251,74.446-10.247,81.5,0,121.464,3.87,126.951,12.153,133.232,14.551,135.577,21.6S1326.421,921.323,1316.9,908s22.736-4.622,26.349-19.217S869.322,863.075,869.322,863.075Z" transform="translate(-847.653 -505.17)" fill="#231f20" style="mix-blend-mode: overlay;isolation: isolate"/>
        <path id="Path_96" data-name="Path 96" d="M1271.4,827.4c-1.8.6-11.373,37.111-11.373,37.111h-79.012c13.788-28.613,49.682-62.85,49.682-62.85a288.607,288.607,0,0,1,59.857,0c3.671,0,5.894,27.53,0,27.535C1288.754,829.2,1271.4,827.4,1271.4,827.4Z" transform="translate(-935.775 -488.079)" fill="#f4f4f4"/>
        <path id="Path_97" data-name="Path 97" d="M959.2,808.8s-9.016,4.8-10.812,5.4-54.47,21.249-54.47,21.249l-10.774,3.292s-14.964-2.394-17.358-3.292-19.155,9.278-19.155,9.278l2.993,4.789h15.563l17.771.1L943,841.137l27.535-9.583Z" transform="translate(-845.013 -490.439)" fill="#ffb3a0"/>
        <path id="Path_98" data-name="Path 98" d="M958.6,808.8s-9.016,4.8-10.812,5.4-54.47,21.249-54.47,21.249l-10.774,3.292s-14.964-2.394-17.358-3.292-19.155,9.278-19.155,9.278c-3.381,2.485-1.015,3.8,2.993,4.789h15.563l17.771.1,60.043-8.478,27.535-9.583Z" transform="translate(-844.411 -490.439)" fill="#e3c3ba"/>
        <path id="Path_99" data-name="Path 99" d="M877.175,837.436c2.064.826,8.669,3.716,13.21,2.89s62.333-22.7,63.572-23.117c.713-.237,7.442-3.62,13.026-6.449l-.1-.211-.871-1.748s-9.016,4.8-10.812,5.4-54.469,21.249-54.469,21.249l-10.775,3.292s-14.964-2.394-17.358-3.292a1.83,1.83,0,0,0-.881,0C874.011,836.263,876.285,837.08,877.175,837.436Z" transform="translate(-851.822 -490.439)" fill="#fff"/>
        <path id="Path_100" data-name="Path 100" d="M1396.76,441.448c9.49.017,9.079-5.2,15.165-11.962,1.358,5.415,4.626,7.4,6.945,6.636a18.475,18.475,0,0,0,9.577-5.587l2.787,3.9,5.094-6.894c3.756-2.884,6.456-2.643,11.073-16.161l-17.957-30.328L1407.7,394.022c-3.23,5.965-7.682,9.363-11.975,6.626a3.138,3.138,0,0,0-4.6,1.676c-3.194,9.089-4.487,17.518-2.943,27.577C1389.381,436.384,1393.188,441.345,1396.76,441.448Z" transform="translate(-991.83 -374.333)" fill="#ead6d0"/>
        <ellipse id="Ellipse_1" data-name="Ellipse 1" cx="24.242" cy="23.464" rx="24.242" ry="23.464" transform="translate(445.757 301.415)" fill="#fff"/>
        <path id="Path_101" data-name="Path 101" d="M1412.793,392.116c.62.1-2.809-3.951.587-5.518,0,0-.261-6.693,3.657-6.089,0,0,2.537-5.719,5.97-2.557,0,0,1.128-7.549,4.523-2.586,0,0,.886-5.966,4.135-1.69,0,0,4.179-4.057,5.746-.138,0,0,3.918-3.4,5.225,1.568,0,0,5.225-2.927,4.963,2.846,0,0,5.225.671,3.135,4.79,0,0,4.179-1.106,3.4,3.857,0,0,4.441-.261,2.613,4.963,0,0,6.163-.783,3.343,3.657,0,0,4.036,1.828.739,4.179,0,0,2.865.262-.739,3.135,0,0,3.343,3.9,0,5.345,0,0,.98,4.842-2.226,4.32,0,0-.885,4.844-3.729,2.613,0,0-1.529,4.7-4.683,1.825,0,0-4.982,1.832-6.288-1.3,0,0-3.657,3.134-4.963,0,0,0-2.072.109-4.963.522-.458.065-1.339.947-2.514.163,0,0-2.547.882-2.743-.784,0,0-2.3-.392-1.295-2.253,0,0-2.428,1.763-2.624-.294s.784-2.35.784-2.35.35-2.449-1.833-1.959-2.477.471-3.359-.5.1,1.773-1.763.989-.293,2.253-2.057,1.274-1.371,1.665-2.742-.294-3.134.373-2.253-1.969-.882-1.95-1.077-2.243-1.666-1.959,0-2.449c0,0-2.061-1.959-.786-2.938s-.416-.49-.416-.49a4.633,4.633,0,0,1,1.1-3.134c.49-.588.392-3.262,1.959-1.925C1411.617,394.7,1409.3,391.55,1412.793,392.116Z" transform="translate(-997.536 -371.83)" fill="url(#linear-gradient-2)"/>
        <path id="Path_102" data-name="Path 102" d="M1039.808,767.764c-1.436,1.233-41.3,20.352-41.3,20.352-8.26,10.153,6.191,32.622,9.577,31.724l37.41-14.366,66.142,40.1,19.154,4.788s39.98-55.858,51.435-62.05c0,0-2.951-4.99-5.346-4.99s-32.323-7.981-32.323-7.981l2.89-4.161-36.322-22.218a6.7,6.7,0,0,0-5.286-.74l-12.16,3.375S1050.851,758.285,1039.808,767.764Z" transform="translate(-885.555 -473.93)" fill="#2262b9"/>
        <g id="Group_148" data-name="Group 148" transform="translate(0.415 274.052)">
          <path id="Path_103" data-name="Path 103" d="M1197.269,783.326c-2.394,0-32.323-7.981-32.323-7.981l2.89-4.161-36.322-22.218a6.693,6.693,0,0,0-5.286-.74l-12.16,3.375s-26.267,4.1-42.963,10.43a4.224,4.224,0,0,1,3.023.9c3.1,3.1.619,5.263,4.644,7.431s21.053,3.405,21.053,3.405-15.48-2.786-14.861-5.263,30.342-6.192,30.342-6.192-.929-6.5,2.167-7.121,9.908,4.025,9.908,4.025-3.406-6.5-1.239-7.431,18.267,10.526,23.53,15.171,16.1,12.384,21.053,12.384,11.146.928,10.526,2.786-7.121,4.644-7.121,4.644,14.861-1.548,17.647-.929-10.526,12.075-6.5,11.456c1.868-.288,6.87-2.309,11.694-4.393a29.33,29.33,0,0,1,5.644-4.586S1199.664,783.326,1197.269,783.326Z" transform="translate(-906.358 -747.983)" fill="#231f20" opacity="0.343" style="mix-blend-mode: overlay;isolation: isolate"/>
          <path id="Path_104" data-name="Path 104" d="M1104.394,819.471c-1.239-.31-46.751,7.431-61.3,5.883,0,0,23.84-6.192,17.958-6.5s-32.2-3.1-45.2-6.811-27.555-14.552-23.221-9.6,18.267,9.908,12.385,10.526-42.726-11.765-41.488-9.6,29.722,13.932,26.317,14.242-26.936-2.787-24.459-1.239,7.74,4.644,6.811,5.263a31.815,31.815,0,0,1-5.762.5l-1.97-3.954c-5.258.713-12.848,2.168-16.521,4.792-5.78,4.128-59.651,20.847-65.637,20.641a62.909,62.909,0,0,0-15.48,1.238c-3.1.826-9.289,2.064-11.352,1.032s1.445-4.335,4.128-4.541,11.766-.206,11.766-1.239-2.89-1.445-5.16-1.651-2.27.206-4.334.826-8.875,2.477-9.495,3.509-4.954,2.89-7.018,2.89c-.122,0-.248,0-.377,0a9.557,9.557,0,0,0,4.2,1.764h15.563l17.771.1,60.043-8.478,20.983-7.3c1.488,1.741,2.8,2.715,3.558,2.514l37.41-14.366,66.142,40.1,14.021,3.505c4.667-6.61,13.425-18.734,19.107-24.853,0,0-20.744,16.1-26.626,16.1s17.028-16.1,16.1-15.79-36.843,5.263-43.964,0S1105.631,819.781,1104.394,819.471Z" transform="translate(-844.98 -762.419)" fill="#231f20" opacity="0.409" style="mix-blend-mode: overlay;isolation: isolate"/>
        </g>
        <path id="Path_105" data-name="Path 105" d="M1117.2,742.81c-2.831-.174-4.739-2.427-4.19-10.206,1.505-.5,4.613-.582,8.33-1.821.974-1.128-.163-6.427-2.476-10.682l3.251-3.561c-3.694-2.992-7.986-6.787-7.74-10.99,0,0-1.963-14.248-20.519-11.853s-22.746,6.285-22.746,6.285l2.394,26.14,11.227,9.245c5.035,7.127-.107,10.927-2.248,13.4,18.739,6.633,32.128,8.314,34.717,0Z" transform="translate(-905.946 -459.122)" fill="#e3c3ba"/>
        <path id="Path_106" data-name="Path 106" d="M1107.729,698.652c.867-.821,4.438-4.479,3.263-7.627,0,0-3,2.561-3.263,0s-3.594-5.7-5.357-6.478c0,0,1.175,4.114,0,3.33s-1.959-3.918-4.506-3.33c0,0,2.743,1.959,0,1.959s-4.506-.98-6.857-.784c0,0,1.371,1.763,0,1.763s-5.094-1.371-9.012,0c0,0,2.939,1.176,0,1.176s-8.032.828-10.383,3.94c0,0-4.114-.61-5.877,2.72,0,0,1.763.2,0,1.763a7.618,7.618,0,0,0-2.547,4.506c0,.784,1.371,1.371,1.371,1.371s-.062,4.939-.5,5.016,1.868,5.759,2.064,7.914.587,5.093,1.763,6.465,3.134,3.988,5.681,5.423,8.124,3.741,9.012,5.156,1.959,0,1.567-1.175,1.568,1.371,1.763-.392,1.23-.392,1.3-2.547.267-.587,1.051-2.938,1.567-.392,2.351-2.743.588-6.073-1.175-7.053-.784-9.6,2.546-8.228a6.988,6.988,0,0,1,4.114,3.918s1.763,2.939,2.351,2.743.588-1.764.979-2.743,5.29-6.465,3.527-8.816-3.918-4.309-3.135-4.9S1105.837,700.442,1107.729,698.652Z" transform="translate(-903.795 -456.692)" fill="#9b796e"/>
        <path id="Path_107" data-name="Path 107" d="M1254.54,823.991c.132,0,13.715,1.568,14.76,1.829s4.963,2.534,8.881,3.1a46.253,46.253,0,0,1,8.359,2.256l20.952,1.8s-6.586-2.968-8.937-6.364-2.35-1.306-5.485-1.306-10-2.62-12.054-2.485-5.708,3.269-8.844-1.695-9.142-9.712-7.314-5.509-2.612,5.9-7.313,3.222-11.233-2.809-6.269,0-3.918,4.4-7.314,4.648S1254.54,823.991,1254.54,823.991Z" transform="translate(-952.718 -491.847)" fill="#231f20" style="mix-blend-mode: overlay;isolation: isolate"/>
        <path id="Path_108" data-name="Path 108" d="M1495.165,835.624s-14.8-4.184-14.8-12.413,8.4-11.936,4-15.567-13.8-4.3-13.8-4.3,11.363,3.519,6.661,8.557-6.269,7.78-6.661,12.874,4.7,10.845,4.7,10.845A23.546,23.546,0,0,0,1495.165,835.624Z" transform="translate(-1014.364 -488.958)" fill="url(#linear-gradient-3)"/>
        <path id="Path_109" data-name="Path 109" d="M1509.632,798.487s-7.249-6.388-10.775-5.212-1.176,3.982-3.527,3.656-7.89-1.893-7.89-1.893,7.3.979,6.91-.98.161-6.971,4.186-5.333l4.024,1.638S1506.607,792.1,1509.632,798.487Z" transform="translate(-1018.951 -484.901)" fill="url(#linear-gradient-3)"/>
        <path id="Path_110" data-name="Path 110" d="M1457.15,808.13a2.568,2.568,0,0,0,4.047,0l2.154-2.283s-2.669,10.482-7.114,8.669A54.964,54.964,0,0,1,1457.15,808.13Z" transform="translate(-1010.481 -489.637)" fill="url(#linear-gradient-3)"/>
        <g id="Group_149" data-name="Group 149" transform="translate(313.473 15.797)" opacity="0.239" style="mix-blend-mode: overlay;isolation: isolate">
          <path id="Path_111" data-name="Path 111" d="M1517.392,565.922l-1.338-.557a40.83,40.83,0,0,0-.383,6.922c.31,2.787-.31,3.1-.619,4.953s-8.979-.619-13.313-2.786-14.86-24.149-21.053-35.605-7.74-24.768-13-27.864c-.907-.533-1.991-1.094-3.16-1.657l.334-.307c-3.123-1.021-7.3-2.688-9.456-4.847-3.715-3.715,2.89-1.445,5.573-2.27s-18.576-10.114-18.576-10.114,9.288.413,14.036-1.239-21.053-7.431-21.053-7.431,2.889-.825,5.78-5.573,0-14.448,0-14.448,0,1.652-4.128,8.05-15.894,15.067-19.609,14.448,1.858-6.192,1.858-6.192-12.8,5.986-16.719,12.384a16.345,16.345,0,0,0-2.686,10.767q.255-.828.534-1.667c4.66-6.674,14.034-11.041,25.539-14.365l29.53,31.125,1.923-1.77,5.057,1.806c2.346,10.3,14.824,29.063,27.8,48.236l4.788,8.779c2.282,4.229,5.084,6.976,8.779,7.183h13.567C1519.631,579.257,1519.127,573.329,1517.392,565.922Z" transform="translate(-1308.63 -412.401)" fill="#231f20"/>
          <path id="Path_112" data-name="Path 112" d="M1352.785,395.009l-7.909-1.5c1.392,2.262,4.35,6.467,6.044,4.464,2.27-2.683,16.1-2.064,14.861,0s2.683,5.573,2.683,5.573a23.6,23.6,0,0,1,2.064-3.922c1.445-2.27,5.367-1.651,5.367-1.651s-1.239,1.239-1.651,4.541a18.638,18.638,0,0,0,.825,7.018,11.855,11.855,0,0,1,3.715-7.637c1.48-1.306,4.126-1.4,6.693-1.072C1375.957,393.422,1359.144,393.711,1352.785,395.009Z" transform="translate(-1293.727 -393.513)" fill="#231f20"/>
          <path id="Path_113" data-name="Path 113" d="M1333.309,481.149c-14.448-4.954-42.313,6.811-42.313,6.811s-3.1,0,3.51-8.669,37.772-16.306,37.772-16.306-33.644-3.509-32.612-5.779,30.341-10.526,35.5-13.417-18.989-.619-23.737-1.032,24.149-7.224,28.69-7.844-20.846-3.921-20.846-3.921,9.494-1.858,13.209-5.986,4.128-11.353,4.128-11.353-4.541,10.527-13.829,11.766-14.861-11.766-25.182-13-9.907-5.367-15.068-10.527c-4.337-4.337-6.628-1.535-7.863-.162v12.482s35.914,12.77,36.712,15.962c-11.277,11.529-19.585,25.533-25.539,41.5l-2.395,18.2-1.6,12.131,23.943-6.385,27.83,14.547-4.651-9.406s-5.986-7.431,1.858-10.939,21.259,5.986,21.259,5.986S1347.757,486.1,1333.309,481.149Z" transform="translate(-1274.671 -395.155)" fill="#231f20"/>
        </g>
        <path id="Path_114" data-name="Path 114" d="M1286.716,532.868c-1.1,2.1-1.915,3.252-1.445,8.36,8.1,17.275,15.474,39.034,22.7,45,8.8-17.757,24.824-21.622,41.132-19.225L1341,538.26C1334.859,513.518,1288.826,528.355,1286.716,532.868Z" transform="translate(-964.038 -413.223)" fill="#f0f0f0"/>
        <path id="Path_115" data-name="Path 115" d="M1260.847,398.052a8.188,8.188,0,0,0-1.942.847c-5.263,3.1-30.031,42.416-29.722,46.751s5.882,10.217,4.953,12.075-4.644,3.405-4.644,3.405a2.931,2.931,0,0,0-2.167,2.787c-.151,1.216-1.872,2.282-3.584,3.053l.393.3h5.587l3.99-4.789,4.788-3.99-4.788-14.366,27.135-30.327Z" transform="translate(-947.374 -378.948)" fill="#231f20" style="mix-blend-mode: overlay;isolation: isolate"/>
        <path id="Path_116" data-name="Path 116" d="M1411.759,429.1a38.709,38.709,0,0,0-6.6,5.573c-2.271,2.683-2.89,10.939-4.747,13.83-1.43,2.224-8.972-4.6-12.37-7.861.087.763.159,1.517.278,2.3,1.2,6.484,5.011,11.444,8.583,11.548,9.49.017,9.079-5.2,15.165-11.962,0,0-1.336-7.852-1.336-9.5A12,12,0,0,1,1411.759,429.1Z" transform="translate(-991.969 -387.376)" fill="#231f20" opacity="0.719" style="mix-blend-mode: overlay;isolation: isolate"/>
        <path id="Path_117" data-name="Path 117" d="M1212.151,453.2l5.78-17.132,31.373-53.872s4.484-.6,7.824-1.086v-.876h-8.779L1217.223,435.7l-7.183,18.755,6.606,5.081Z" transform="translate(-943.655 -374.11)" fill="#fff"/>
        <path id="Path_118" data-name="Path 118" d="M1276.755,382.607l17.957,2.476-1.858,3.406s8.359-1.239,9.6-1.548,18.576,3.406,18.576,3.406l4.025,2.786-.406-3.448-49.976-9.455v8.859Z" transform="translate(-961.198 -374.11)" fill="#fff"/>
        <path id="Path_119" data-name="Path 119" d="M1368.5,609.158c-2.935-2.439-8.257-5.629-15.47-3.3-6.581,2.13-10.743,10.432-12.936,16.355l.223.2,20.557,74.223,14.959-20.651-3.592-53.572Z" transform="translate(-978.955 -435.134)" fill="#ba010f"/>
        <path id="Path_120" data-name="Path 120" d="M1420.71,691.67c-2.613-3.48-8.356-9.184-18.795-11.107l-22.629,61.319s15.164,12.77,18.356,15.164,0-17.558,0-17.558Z" transform="translate(-989.594 -455.63)" fill="#ba010f"/>
        <path id="Path_121" data-name="Path 121" d="M1375.861,683.01c1.857-8.668,21.362-52.632,21.362-52.632s-3.1-4.953-7.74-12.694-5.128-19.979-5.128-19.979l-4.444-2.755c-.1.026-.207.057-.311.084-3.192-2.1-7.12-5.168-8.177-8.1-1.858-5.161,13-6.811,13-6.811s-18.783-7.224-14.036-10.733,19.4,4.335,19.4,4.335c-10.32-9.7-28.07-13.829-28.07-13.829s9.082-.826,14.035-.826-11.765-4.334-15.274-6.192c-2.669-1.413,6.476-7,11.012-9.6-10.229-.87-18.391-.957-21.083.806l-1.384-4.908a17.013,17.013,0,0,0-2.685-5.917c-3.314-2.46-7.769-5.181-11.661-5.512-7.276-.619-19.505,4.644-19.505,4.644s16.719-2.632,22.137.464,6.967,5.109,6.967,5.109-6.5-2.941-11.455-2.787a15.389,15.389,0,0,0-8.515,3.1h8.205s-9.133,2.167-12.539,7.895a61.491,61.491,0,0,0-5.263,11.765s10.682-10.372,18.112-8.359,11.61,2.167,8.049,6.192-3.405,6.192-.774,7.585-13.932,4.18-13.932,4.18,2.766,1.162,9.758,1.652a42.108,42.108,0,0,1,14.273-1.872c1.327,2.462,2.68,4.947,3.678,6.721,2.787,4.953-1.239,14.551.929,16.1s6.5,13.623,7.74,20.434-.619,30.651-3.406,35.6a52.281,52.281,0,0,1-7.43,9.6s-10.837-49.846-13.623-55.11-6.192-8.359-8.979-13.932a65.9,65.9,0,0,1-4.334-11.765s-1.548,8.978-.31,12.693a4.771,4.771,0,0,1-1.188,4.548l10.147,9.224,20.557,74.223L1368.94,655l-3.4-50.664c5.636,11.652,12.5,21.5,20.956,29.015l-24.741,67.041s15.164,12.77,18.356,15.164c.909.681,1.3-.451,1.394-2.415l-6.267-3.19S1374,691.68,1375.861,683.01Zm-10.673-82.158-1.885-6.685,1.885,6.685Z" transform="translate(-972.067 -414.137)" fill="#231f20" style="mix-blend-mode: overlay;isolation: isolate"/>
        <path id="Path_122" data-name="Path 122" d="M1406.563,805.245c-4.541-1.445-16.925-11.972-20.433-15.274s-12.591-12.178-15.068-15.274a8.015,8.015,0,0,1-1.663-4.649,12.928,12.928,0,0,1-2.672,2.586c-1.591.62,13.727,14.759,15.687,16.718,4.128,4.128,1.975,4.892,17.338,15.068,11.28,7.471,20.738,2.929,20.632-1.2C1417.225,804.795,1410.7,806.562,1406.563,805.245Z" transform="translate(-986.153 -479.92)" fill="#231f20" style="mix-blend-mode: overlay;isolation: isolate"/>
        <path id="Path_123" data-name="Path 123" d="M1368.611,718.015s.06,6.115,8.973,4.789c9.667-1.438,7.625-5.423,8.481-10.234.927-5.211,17.468-11.64,17.454-21.942-.009-6.016-2.248-9.126-9.1-9.126S1369.414,696.467,1368.611,718.015Z" transform="translate(-986.696 -455.885)" fill="url(#radial-gradient-9)"/>
        <path id="Path_124" data-name="Path 124" d="M1385.222,687.768a14.084,14.084,0,0,0-7.035,7.836c-1.763,5.485-3.526,9.012-4.7,12.734s-4.573,8.738-4.31,10.472-3.523.5-3.622-4.594-.071-4.318.292-3.722.537,4.506,1.738,2.547,2.8-9.239,4.032-11.694,8.151-12.22,9.608-13.578,11.484-10.5,17.742-6.132a5.239,5.239,0,0,1,3.34,4.514S1395.978,679.539,1385.222,687.768Z" transform="translate(-985.852 -455.603)" fill="url(#linear-gradient-6)"/>
        <path id="Path_125" data-name="Path 125" d="M1130.845,742.835c.009-.01.014-.026.023-.036-3.425.1-10.555.215-13.18-.479-3.509-.929-8.979-5.367-9.082-4.335s1.032,14.552,3.715,17.647,4.025,6.709,1.032,8.36c-1.268.7-4.237.972-7.24,1.055,11.147,2.555,18.715,1.8,20.592-4.229v-5.955c-2.831-.174-4.739-2.427-4.19-10.206C1124.02,744.155,1127.127,744.075,1130.845,742.835Z" transform="translate(-915.445 -471.175)" fill="#231f20" opacity="0.525" style="mix-blend-mode: overlay;isolation: isolate"/>
        <path id="Path_126" data-name="Path 126" d="M1534.092,832.523l1.754,2.167-.206,1.445-1.754.412-.929,4.954,1.961,1.135-.31,1.239-2.374.412-.722,3.509,1.755,1.342-.31,1.239-2.27.516-3.509,11.971,2.064,1.858-.517,1.239-2.993.206-.619,2.374,2.374,1.651-.722.929-3.612,1.135V868.85s9.7-34.882,9.7-35.5S1534.092,832.523,1534.092,832.523Z" transform="translate(-1028.644 -496.877)" fill="#231f20"/>
        <path id="Path_127" data-name="Path 127" d="M1248.443,868.361c-1.858-3.715,7.43-17.957,7.43-17.957s-13.416,7.637-11.971,14.242l1.445,6.6a11.624,11.624,0,0,1-8.05-5.573c-3.3-5.16,5.78-16.512,5.78-16.512a52.987,52.987,0,0,0-15.893,11.765c-8.05,8.463-20.228,10.32-20.228,10.32s24.768-22.291,19.2-20.021-26.007,18.164-26.007,18.164,24.356-37.566,18.576-33.851-20.847,29.723-22.7,26.626,3.716-16.512,3.716-16.512l.2-.481c-7.326,9.278-14.34,19.39-18.917,28.887H1254.9C1252.319,872.44,1249.407,870.292,1248.443,868.361Z" transform="translate(-935.775 -497.627)" fill="#231f20" style="mix-blend-mode: overlay;isolation: isolate"/>
        <path id="Path_128" data-name="Path 128" d="M1289.533,837.219s19.4-2.889,47.473,8.669c0,0,10.32-2.064,18.163,3.3s89.992,9.494,91.23,9.494,8.256,3.3,4.953,8.669-64.81,8.669-103.614,6.192-59.836.954-59.836.954a16.114,16.114,0,0,1-4.15-11.275C1284.166,856.621,1289.533,837.219,1289.533,837.219Z" transform="translate(-963.656 -498.065)" fill="#e3c3ba"/>
        <path id="Path_129" data-name="Path 129" d="M1473.691,863.707c-1.145,0-71.487-3.531-88.261-8.306,1.206,5.077,2.754,15.182-1.156,23.635,38.608,1.494,91.32-1.7,94.37-6.659C1481.947,867.01,1474.93,863.707,1473.691,863.707Z" transform="translate(-990.948 -503.087)" fill="#2262b9"/>
        <path id="Path_130" data-name="Path 130" d="M1447.753,865.268a27.383,27.383,0,0,1-12.5,6.607c-9.495,2.063-59.031,2.063-67.7.826s-2.889-4.128-5.367-9.495-2.889,1.651-9.494,2.889-22.7-4.953-23.943-4.953-3.716,8.669-16.925,7.431c-8.625-.809-19.711-5.664-26.369-8.938a75.119,75.119,0,0,0-1.7,9.764,16.114,16.114,0,0,0,4.15,11.275s21.032-3.432,59.836-.954,100.311-.825,103.614-6.192C1453.98,869.257,1450.083,866.3,1447.753,865.268Z" transform="translate(-963.656 -504.236)" fill="#231f20" opacity="0.385" style="mix-blend-mode: overlay;isolation: isolate"/>
        <path id="Path_131" data-name="Path 131" d="M1502.705,855.186s-2.394-.114-.855-2.508,7.182-2.223,10.259-7.523,7.352-13.507,7.352-17.44,5.472-5.984,8.719-1.539-5.3,31.972-6.839,36.931-3.078,8.378-6.155,8.549-12.652-1.539-13.678-2.736,5.642-2.565,6.155-5.984-.17-7.694-1.709-7.694S1502.705,855.186,1502.705,855.186Z" transform="translate(-1022.721 -494.473)" fill="#ddd"/>
        <path id="Path_132" data-name="Path 132" d="M1532.561,826.2a5.692,5.692,0,0,0-3.864-2.46c1.04,1.749,1.859,4.8,1.169,10.117-1.275,9.838-6.731,30.6-12.394,37.753a16.3,16.3,0,0,0,2.094.07c3.077-.171,4.616-3.59,6.155-8.549S1535.81,830.641,1532.561,826.2Z" transform="translate(-1027.102 -494.492)" fill="#231f20" style="mix-blend-mode: overlay;isolation: isolate"/>
        <path id="Path_133" data-name="Path 133" d="M1398.2,690.588l1.445,1.651s-4.231,1.032-5.47,4.025l-2.476-.722S1394.9,690.381,1398.2,690.588Z" transform="translate(-992.964 -458.35)" fill="#231f20"/>
        <path id="Path_134" data-name="Path 134" d="M1389.222,702.863l-1.548-.517s-1.961,3.1-2.064,4.747l1.651.207Z" transform="translate(-991.31 -461.543)" fill="#231f20"/>
        <path id="Path_135" data-name="Path 135" d="M1408.782,695.264s-.31,3.612-1.754,4.954l-1.445,1.342,1.754.928s3.612-3.612,3.51-5.779Z" transform="translate(-996.732 -459.621)" fill="#231f20"/>
        <path id="Path_136" data-name="Path 136" d="M1400.515,708.438c-.309.1-3.715,2.992-3.715,2.992l1.135,1.032,4.541-2.683Z" transform="translate(-994.348 -463.197)" fill="#231f20"/>
        <path id="Path_137" data-name="Path 137" d="M1385.318,711.967l-1.548-.413-1.135,2.58,1.445.1Z" transform="translate(-990.503 -464.042)" fill="#231f20"/>
        <path id="Path_138" data-name="Path 138" d="M1394.05,715.431l-1.651-.619-1.548,2.271,1.135.722Z" transform="translate(-992.733 -464.927)" fill="#231f20"/>
        <path id="Path_139" data-name="Path 139" d="M1376.774,728.268l1.445.413s-.31,2.374.207,3.1l.516.722-2.683.31S1376.155,729.61,1376.774,728.268Z" transform="translate(-988.77 -468.579)" fill="#231f20"/>
        <path id="Path_140" data-name="Path 140" d="M1386.322,728.615s-.516,2.787-2.27,3.612l2.27.413a10.661,10.661,0,0,0,1.239-3.509C1387.561,727.893,1386.322,728.615,1386.322,728.615Z" transform="translate(-990.887 -468.617)" fill="#231f20"/>
        <path id="Path_141" data-name="Path 141" d="M1042.658,775.632a42.883,42.883,0,0,1,4.293-5.942,29.016,29.016,0,0,0-6.666,3.966c-1.436,1.233-41.3,20.352-41.3,20.352a10.226,10.226,0,0,0-1.237,1.942Z" transform="translate(-886.031 -479.822)" fill="#fff"/>
        <path id="Path_91" data-name="Path 91" d="M1396.395,767.855c.177,1.832,8.779,25.118,19.753,28.111s-1.033,15.1-16.4,4.928-13.21-10.939-17.338-15.068c-1.96-1.96-17.277-16.1-15.687-16.718s10.314-12.049,10.314-12.049Z" transform="translate(-986.153 -476.394)" fill="url(#linear-gradient-7)"/>
      </g>
    </g>
  </g>
</svg>
