<svg id="Layer_1" data-name="Layer 1" xmlns="http://www.w3.org/2000/svg" xmlns:xlink="http://www.w3.org/1999/xlink" viewBox="0 0 1787.04 273.53"><defs><style>.cls-1{fill:#fafafa;}.cls-2{fill:#29d300;}.cls-3{fill:#006cf9;}.cls-4{fill:url(#linear-gradient);}.cls-5{fill:url(#linear-gradient-2);}.cls-6{fill:#fff;}.cls-7{isolation:isolate;}</style><linearGradient id="linear-gradient" x1="-2203.79" y1="230.15" x2="-2201.14" y2="227.17" gradientTransform="matrix(0.17, 0, 0, -0.27, 624, 987.93)" gradientUnits="userSpaceOnUse"><stop offset="0" stop-color="#eebf49"/><stop offset="1" stop-color="#db3664"/></linearGradient><linearGradient id="linear-gradient-2" x1="-18896.57" y1="-6740.32" x2="-18893.94" y2="-6743.41" gradientTransform="matrix(0.03, 0, 0, -0.04, 728.01, 663.89)" xlink:href="#linear-gradient"/></defs><g id="logo"><g id="Group_2937" data-name="Group 2937"><path id="Path_1221" data-name="Path 1221" class="cls-1" d="M286.32,942.55H178.44a27.43,27.43,0,0,1-27.52-27.32h0a27.42,27.42,0,0,1,27.52-27.31H286.32a27.42,27.42,0,0,1,27.52,27.32h0A27.42,27.42,0,0,1,286.32,942.55Z" transform="translate(-76.91 -833)"/><path id="Path_1222" data-name="Path 1222" class="cls-2" d="M152,900h0a27.12,27.12,0,0,0,8,37.5,26.74,26.74,0,0,0,3.14,1.75c25.75,12.44,61.54,35.18,76.55,70.27,24.68,57.7-25.51,75.52-45.22,69.33,0,0,50.49,23.62,80.38-34.95,26.41-51.74-24.6-110.47-84.1-151.4a27.56,27.56,0,0,0-38.35,7Z" transform="translate(-76.91 -833)"/><path id="Path_1223" data-name="Path 1223" class="cls-3" d="M81.29,1008.43h0a27.54,27.54,0,0,1,38.13-7.87,28.31,28.31,0,0,1,2.5,1.85c22,18.24,57.51,41.36,95.91,40.6,63.14-1.25,57-69.36,43.24-84.68,0,0,53.58,57.94,6.21,107.37-39.69,41.43-115.06,18-177-19.16a27.13,27.13,0,0,1-9.54-37.15C80.89,1009.07,81.09,1008.75,81.29,1008.43Z" transform="translate(-76.91 -833)"/><g id="Group_2936" data-name="Group 2936"><path id="Path_1224" data-name="Path 1224" class="cls-3" d="M269.13,1001.8A59.17,59.17,0,0,0,275,978.26a112.07,112.07,0,0,0-13.9-19.91C267.45,965.44,272.18,983.91,269.13,1001.8Z" transform="translate(-76.91 -833)"/><path id="Path_1225" data-name="Path 1225" class="cls-3" d="M272.24,1050.23c-39.7,41.43-115.07,18-177-19.16a27.26,27.26,0,0,1-13.33-23.47c-.2.27-.39.55-.58.83a27.12,27.12,0,0,0,8,37.52l1,.6c62,37.15,137.34,60.59,177,19.16a67,67,0,0,0,18.59-34.93A73.63,73.63,0,0,1,272.24,1050.23Z" transform="translate(-76.91 -833)"/></g><path id="Path_1226" data-name="Path 1226" class="cls-4" d="M264.6,967.86c-.24-.41-.49-.79-.75-1.15C264,966.91,264.25,967.31,264.6,967.86Z" transform="translate(-76.91 -833)"/><path id="Path_1227" data-name="Path 1227" class="cls-5" d="M263.83,966.71l-.11-.16Z" transform="translate(-76.91 -833)"/><ellipse id="Ellipse_6" data-name="Ellipse 6" class="cls-3" cx="210.06" cy="82.41" rx="28.11" ry="27.91"/></g><g id="Group_2939" data-name="Group 2939"><g id="Group_2938" data-name="Group 2938"><path id="Path_1229" data-name="Path 1229" class="cls-6" d="M443.89,933.69a49.21,49.21,0,0,0-22.63-6A17.06,17.06,0,0,0,411.9,930a7,7,0,0,0-3.59,6.18,8.24,8.24,0,0,0,.57,3.33,5.91,5.91,0,0,0,2.54,2.41,22,22,0,0,0,5.77,2.08q3.81.93,10.05,2.31a48.16,48.16,0,0,1,25.84,12.31,31.13,31.13,0,0,1,8.5,22.6,40.63,40.63,0,0,1-4.19,18.57,39.58,39.58,0,0,1-11.58,13.86,55.24,55.24,0,0,1-17.8,8.66,80,80,0,0,1-22.88,3,93.48,93.48,0,0,1-47.33-13.62l15.3-29.33a59.87,59.87,0,0,0,33.25,12,16.4,16.4,0,0,0,9.47-2.51,7.5,7.5,0,0,0,3.71-6.41,10.56,10.56,0,0,0-.57-3.78,6.12,6.12,0,0,0-2.42-2.76,19.5,19.5,0,0,0-5.42-2.3q-3.58-1.05-9.36-2.2-19.39-3.93-27.12-11.63A28.55,28.55,0,0,1,367,941.53a41.45,41.45,0,0,1,3.72-17.75,36.92,36.92,0,0,1,10.66-13.39,50.11,50.11,0,0,1,16.76-8.46A75.07,75.07,0,0,1,419.93,899a100,100,0,0,1,38.1,7.64Z" transform="translate(-76.91 -833)"/><path id="Path_1230" data-name="Path 1230" class="cls-6" d="M518.83,1079.93l-41.81-.08.35-176.35,41.81.08,0,13.07A44.27,44.27,0,0,1,555.69,900a57.07,57.07,0,0,1,23.66,5,60.18,60.18,0,0,1,19,13.45,60.91,60.91,0,0,1,12.56,20,66.66,66.66,0,0,1,4.46,24.54,64.57,64.57,0,0,1-4.56,24.3,62.4,62.4,0,0,1-12.51,19.7,57.34,57.34,0,0,1-42.43,18,49.53,49.53,0,0,1-36.95-15.2Zm52.9-117.08a28.05,28.05,0,0,0-1.93-10.44,25.55,25.55,0,0,0-5.63-8.61,28.68,28.68,0,0,0-8.66-5.86,26.64,26.64,0,0,0-10.74-2.2,26.27,26.27,0,0,0-10.39,2,25.75,25.75,0,0,0-8.44,5.72,29,29,0,0,0-5.79,8.59,25.15,25.15,0,0,0-2.22,10.42,25.69,25.69,0,0,0,7.82,18.71,29.32,29.32,0,0,0,8.66,5.76,26.36,26.36,0,0,0,29.34-5.57,29.58,29.58,0,0,0,5.79-8.47,24.09,24.09,0,0,0,2.19-10.09Z" transform="translate(-76.91 -833)"/><path id="Path_1231" data-name="Path 1231" class="cls-6" d="M629,961.58a56.74,56.74,0,0,1,5.36-24.41,59.94,59.94,0,0,1,14.82-19.69,70.21,70.21,0,0,1,22.55-13.14,81.87,81.87,0,0,1,28.54-4.77,83.08,83.08,0,0,1,28.29,4.77,70.35,70.35,0,0,1,22.62,13.11,59,59,0,0,1,14.86,20A60.56,60.56,0,0,1,771.25,963a59.55,59.55,0,0,1-5.47,25.54,60.82,60.82,0,0,1-14.95,19.92,66.92,66.92,0,0,1-22.78,12.91,87.86,87.86,0,0,1-28.77,4.53,84.12,84.12,0,0,1-28.17-4.64,65,65,0,0,1-22.27-13.12,60.56,60.56,0,0,1-14.63-20.32A63.38,63.38,0,0,1,629,961.58Zm44.12.54a26.5,26.5,0,0,0,2.16,10.9,29.12,29.12,0,0,0,5.77,8.61,25.25,25.25,0,0,0,8.53,5.75,27.81,27.81,0,0,0,21,0,25.49,25.49,0,0,0,8.56-5.72,29.61,29.61,0,0,0,5.79-8.59,25.76,25.76,0,0,0,2.21-10.66A25.29,25.29,0,0,0,725,952a29.26,29.26,0,0,0-5.76-8.62,25.55,25.55,0,0,0-8.53-5.75,27.76,27.76,0,0,0-21,0,25.46,25.46,0,0,0-8.56,5.71,29.58,29.58,0,0,0-5.79,8.47,24.62,24.62,0,0,0-2.21,10.34Z" transform="translate(-76.91 -833)"/><path id="Path_1232" data-name="Path 1232" class="cls-6" d="M789.76,904.14l41.82.08,0,19.26A47.94,47.94,0,0,1,848,907.34a44.48,44.48,0,0,1,22.65-5.57h3.59a27,27,0,0,1,4.49.47l-.07,39.67a40,40,0,0,0-18-4.16,27,27,0,0,0-21.85,8.56,38,38,0,0,0-7.32,25.11l-.1,50.45-41.81-.08Z" transform="translate(-76.91 -833)"/><path id="Path_1233" data-name="Path 1233" class="cls-6" d="M950.48,939.08l-.18,83-41.81-.09.16-83-13.85,0,.07-34.64,13.85,0,.08-35.32,41.81.08-.08,35.32,23.81,0-.07,34.63Z" transform="translate(-76.91 -833)"/><path id="Path_1234" data-name="Path 1234" class="cls-6" d="M1083.41,1081.11l-41.82-.08.35-176.35,41.81.08,0,13.07a44.26,44.26,0,0,1,36.53-16.67,57.15,57.15,0,0,1,23.67,5,60,60,0,0,1,19,13.46,60.74,60.74,0,0,1,12.55,20,66.27,66.27,0,0,1,4.46,24.55,64.55,64.55,0,0,1-4.55,24.29,62.28,62.28,0,0,1-12.51,19.7,57.36,57.36,0,0,1-42.43,18,49.51,49.51,0,0,1-36.93-15.2ZM1136.3,964a27.87,27.87,0,0,0-1.94-10.44,25,25,0,0,0-5.62-8.61,28.71,28.71,0,0,0-8.66-5.87,27.43,27.43,0,0,0-21.14-.15,25.74,25.74,0,0,0-8.45,5.72,29.34,29.34,0,0,0-5.79,8.59,25.48,25.48,0,0,0-2.22,10.43,26,26,0,0,0,2.07,10.32,25.31,25.31,0,0,0,5.76,8.38,29.09,29.09,0,0,0,8.66,5.75,25.82,25.82,0,0,0,10.5,2.2,26.1,26.1,0,0,0,10.39-2.05,25.71,25.71,0,0,0,8.45-5.71,29.84,29.84,0,0,0,5.79-8.47,24.17,24.17,0,0,0,2.2-10.08Z" transform="translate(-76.91 -833)"/><path id="Path_1235" data-name="Path 1235" class="cls-6" d="M1198.25,905l41.82.09,0,19.26a47.88,47.88,0,0,1,16.46-16.14,44.35,44.35,0,0,1,22.65-5.57h3.58a25.17,25.17,0,0,1,4.5.47l-.07,39.67a39.94,39.94,0,0,0-18-4.16,27,27,0,0,0-21.84,8.56,37.92,37.92,0,0,0-7.33,25.11l-.1,50.45-41.81-.08Z" transform="translate(-76.91 -833)"/><path id="Path_1236" data-name="Path 1236" class="cls-6" d="M1339.2,971.11q-.06,26.85,25.35,26.88a22.73,22.73,0,0,0,20.59-11l40.43.09q-12.33,40.33-61.3,40.24a81.09,81.09,0,0,1-27.48-4.53,61.33,61.33,0,0,1-21.35-12.77,56.55,56.55,0,0,1-13.7-19.74,65.35,65.35,0,0,1-4.81-25.7,72.05,72.05,0,0,1,4.67-26.47,55.74,55.74,0,0,1,13.21-20,58.48,58.48,0,0,1,20.7-12.69A78.81,78.81,0,0,1,1362.9,901a77.28,77.28,0,0,1,27,4.53,54.77,54.77,0,0,1,20.3,13,56.13,56.13,0,0,1,12.66,20.78,81.37,81.37,0,0,1,4.33,27.64v4.36Zm49-24a24.91,24.91,0,0,0-8.51-14,26.65,26.65,0,0,0-31.54-.3,22.84,22.84,0,0,0-7.77,14.2Z" transform="translate(-76.91 -833)"/><path id="Path_1237" data-name="Path 1237" class="cls-6" d="M1541,833l42,.09-.37,190.33-42.05-.08v-13.07a44,44,0,0,1-36.3,16.67,58.13,58.13,0,0,1-23.79-4.86,58.81,58.81,0,0,1-18.91-13.34,60.76,60.76,0,0,1-12.56-20,69.79,69.79,0,0,1-.14-48.73,60.07,60.07,0,0,1,12.17-19.82,57.65,57.65,0,0,1,18.85-13.38,58.33,58.33,0,0,1,24.15-4.88,48.46,48.46,0,0,1,36.71,15.44Zm-52.93,131.07a27.34,27.34,0,0,0,7.69,19.28,25.39,25.39,0,0,0,8.54,5.75,27.64,27.64,0,0,0,10.73,2.08,27.08,27.08,0,0,0,10.52-2,25.39,25.39,0,0,0,8.56-5.72,29.65,29.65,0,0,0,5.78-8.45,24.51,24.51,0,0,0,2.22-10.32,25.54,25.54,0,0,0-2.17-10.44,29.21,29.21,0,0,0-5.76-8.61,25.26,25.26,0,0,0-8.54-5.74,27.72,27.72,0,0,0-21,0,25.32,25.32,0,0,0-8.55,5.71,30,30,0,0,0-5.79,8.36A23.66,23.66,0,0,0,1488.05,964.07Z" transform="translate(-76.91 -833)"/><path id="Path_1238" data-name="Path 1238" class="cls-6" d="M1610.69,860.66a22.21,22.21,0,0,1,1.87-9.06,23.8,23.8,0,0,1,5.09-7.44,24.18,24.18,0,0,1,7.52-5,23.6,23.6,0,0,1,30.8,12.56,23.08,23.08,0,0,1,0,18.12,23.61,23.61,0,0,1-43.42-.09A22.36,22.36,0,0,1,1610.69,860.66Zm44.49,45.26-.23,117.64-41.81-.08.23-117.64Z" transform="translate(-76.91 -833)"/><path id="Path_1239" data-name="Path 1239" class="cls-6" d="M1767.53,944.22a38.85,38.85,0,0,0-21.92-7.38,30,30,0,0,0-11.21,2,27.91,27.91,0,0,0-9.14,5.83,27,27,0,0,0-6.14,8.93,29.28,29.28,0,0,0-2.21,11.58,28.51,28.51,0,0,0,2.16,11.35,28,28,0,0,0,6,9,26.34,26.34,0,0,0,9.12,5.86,31,31,0,0,0,11.31,2.08,34.74,34.74,0,0,0,22-8l-.07,35.31a74.51,74.51,0,0,1-29.35,6.59,70,70,0,0,1-24.59-4.4,62.52,62.52,0,0,1-20.54-12.56,61.17,61.17,0,0,1-14.16-19.52,59,59,0,0,1-5.27-25.34A63,63,0,0,1,1678.6,940a61.19,61.19,0,0,1,13.91-19.91,62.68,62.68,0,0,1,20.93-13,71.32,71.32,0,0,1,26-4.65,62.72,62.72,0,0,1,28.18,6.49Z" transform="translate(-76.91 -833)"/><path id="Path_1240" data-name="Path 1240" class="cls-6" d="M1840.07,940.92l-.16,83-41.81-.09.16-83-13.86,0,.07-34.64,13.86,0,.06-35.32,41.81.08-.06,35.32,23.81.05-.07,34.63Z" transform="translate(-76.91 -833)"/></g><g class="cls-7"><path class="cls-6" d="M1232.62,1077.55c0,10.4-7.32,17.89-17.14,17.89-5.38,0-9.21-2.06-11.09-5.83l-1.15,5.49H1198l8.46-42.42H1212l-3.14,15.61a15.19,15.19,0,0,1,10.41-3.77C1227,1064.52,1232.62,1069.38,1232.62,1077.55Zm-5.54.28c0-5.37-3.26-8.51-9-8.51-6.86,0-11.84,5.31-11.84,12.8,0,5.32,3.26,8.52,9,8.52C1222,1090.64,1227.08,1085.32,1227.08,1077.83Z" transform="translate(-76.91 -833)"/><path class="cls-6" d="M1248.66,1081.66v.35c0,5.55,3.09,8.63,9.61,8.63a13.53,13.53,0,0,0,9.37-3.49l2.35,3.95c-3,2.8-7.55,4.34-12.18,4.34-9,0-14.52-5.14-14.52-13.15,0-10.28,7.2-17.77,17.09-17.77,8.18,0,13.55,4.91,13.55,13.09a23.46,23.46,0,0,1-.4,4.05Zm.57-4h19.55c.29-5.54-3.26-8.57-8.63-8.57A10.89,10.89,0,0,0,1249.23,1077.66Z" transform="translate(-76.91 -833)"/><path class="cls-6" d="M1292.72,1085.44a7.58,7.58,0,0,0-.17,1.6c0,2.34,1.26,3.77,4,3.77a7.57,7.57,0,0,0,4.35-1.43l1.14,4.17a12.22,12.22,0,0,1-7,1.89c-4.74,0-8-2.86-8-7.6a11.17,11.17,0,0,1,.23-2.29l3.25-16.23h-5.14l.86-4.52h5.2l1.32-6.63h5.49l-1.32,6.63h8.69l-.92,4.52H1296Z" transform="translate(-76.91 -833)"/><path class="cls-6" d="M1322,1085.44a7.62,7.62,0,0,0-.18,1.6c0,2.34,1.26,3.77,4,3.77a7.51,7.51,0,0,0,4.34-1.43l1.15,4.17a12.22,12.22,0,0,1-7,1.89c-4.75,0-8-2.86-8-7.6a11.22,11.22,0,0,1,.24-2.29l3.25-16.23h-5.14l.86-4.52h5.19l1.33-6.63h5.48l-1.32,6.63h8.69l-.91,4.52h-8.69Z" transform="translate(-76.91 -833)"/><path class="cls-6" d="M1349.82,1064.8h5.48l-6,30.3h-5.49Zm.91-9.14a3.79,3.79,0,0,1,4-3.83,3.34,3.34,0,0,1,3.48,3.2,3.79,3.79,0,0,1-4,3.94A3.31,3.31,0,0,1,1350.73,1055.66Z" transform="translate(-76.91 -833)"/><path class="cls-6" d="M1398.54,1074.58a20.7,20.7,0,0,1-.34,3.54l-3.38,17h-5.49l3.38-17a14.15,14.15,0,0,0,.28-2.51c0-3.95-2.28-6.18-7-6.18-5.88,0-9.89,3.15-11.2,9.66l-3.2,16h-5.49l6-30.3h5.26l-.74,3.89c2.8-2.86,6.63-4.17,11-4.17C1394.42,1064.52,1398.54,1068.12,1398.54,1074.58Z" transform="translate(-76.91 -833)"/><path class="cls-6" d="M1446.47,1064.8l-5.19,26.18c-2.18,11-8.06,15.55-18.12,15.55-5.78,0-10.58-1.54-13.84-4.29l3-4.23c2.35,2.18,6.46,3.66,11.21,3.66,7.14,0,10.74-3.26,12.06-9.83l.46-2.17a15.46,15.46,0,0,1-11,4.17c-8,0-13.49-4.69-13.49-12.35,0-9.6,7.15-17,17.26-17,5,0,9.32,1.83,11.32,5.83l1.09-5.55Zm-8.39,12.35c0-4.86-3.32-7.83-9-7.83a11.45,11.45,0,0,0-11.89,11.83c0,4.92,3.38,7.89,9,7.89A11.48,11.48,0,0,0,1438.08,1077.15Z" transform="translate(-76.91 -833)"/><path class="cls-6" d="M1515.93,1052.68l-8.46,42.42h-5.26l.74-3.72a15,15,0,0,1-10.68,4.06c-7.72,0-13.38-4.91-13.38-13.09,0-10.4,7.32-17.83,17.15-17.83,5.2,0,9,1.88,11,5.49l3.42-17.33Zm-10.63,25.15c0-5.37-3.26-8.51-9-8.51-6.8,0-11.83,5.31-11.83,12.8,0,5.32,3.25,8.52,9,8.52C1500.33,1090.64,1505.3,1085.32,1505.3,1077.83Z" transform="translate(-76.91 -833)"/><path class="cls-6" d="M1524.2,1082.35c0-10.23,7.44-17.83,17.78-17.83,8.63,0,14.18,5.08,14.18,13,0,10.29-7.38,17.89-17.72,17.89C1529.81,1095.44,1524.2,1090.24,1524.2,1082.35Zm26.41-4.52c0-5.37-3.26-8.51-9-8.51-6.8,0-11.84,5.31-11.84,12.8,0,5.32,3.26,8.52,9,8.52C1545.64,1090.64,1550.61,1085.32,1550.61,1077.83Z" transform="translate(-76.91 -833)"/><path class="cls-6" d="M1599.36,1074.58a19.8,19.8,0,0,1-.35,3.54l-3.38,17h-5.48l3.37-17a13.35,13.35,0,0,0,.29-2.51c0-3.95-2.29-6.18-7-6.18-5.89,0-9.89,3.15-11.2,9.66l-3.21,16h-5.49l6-30.3h5.26l-.75,3.89c2.8-2.86,6.63-4.17,11-4.17C1595.24,1064.52,1599.36,1068.12,1599.36,1074.58Z" transform="translate(-76.91 -833)"/><path class="cls-6" d="M1617.62,1081.66v.35c0,5.55,3.09,8.63,9.61,8.63a13.53,13.53,0,0,0,9.37-3.49l2.35,3.95c-3,2.8-7.54,4.34-12.18,4.34-9,0-14.52-5.14-14.52-13.15,0-10.28,7.2-17.77,17.09-17.77,8.18,0,13.55,4.91,13.55,13.09a22.51,22.51,0,0,1-.4,4.05Zm.57-4h19.56c.28-5.54-3.26-8.57-8.63-8.57A10.89,10.89,0,0,0,1618.19,1077.66Z" transform="translate(-76.91 -833)"/><path class="cls-6" d="M1697.65,1064.52l-1,5.31a11,11,0,0,0-1.43-.06c-6.06,0-10.06,3.21-11.43,10.18l-3,15.15h-5.48l6-30.3h5.26l-.86,4.52C1688.38,1065.89,1692.22,1064.52,1697.65,1064.52Z" transform="translate(-76.91 -833)"/><path class="cls-6" d="M1710.59,1064.8h5.49l-6,30.3h-5.49Zm.92-9.14a3.79,3.79,0,0,1,4-3.83,3.34,3.34,0,0,1,3.48,3.2,3.8,3.8,0,0,1-4,3.94A3.31,3.31,0,0,1,1711.51,1055.66Z" transform="translate(-76.91 -833)"/><path class="cls-6" d="M1761.83,1064.8l-5.2,26.18c-2.17,11-8.06,15.55-18.12,15.55-5.78,0-10.58-1.54-13.84-4.29l3-4.23c2.34,2.18,6.45,3.66,11.2,3.66,7.14,0,10.75-3.26,12.06-9.83l.46-2.17a15.42,15.42,0,0,1-11,4.17c-8,0-13.5-4.69-13.5-12.35,0-9.6,7.15-17,17.26-17,5,0,9.32,1.83,11.32,5.83l1.09-5.55Zm-8.41,12.35c0-4.86-3.31-7.83-9-7.83a11.46,11.46,0,0,0-11.89,11.83c0,4.92,3.38,7.89,9,7.89A11.47,11.47,0,0,0,1753.42,1077.15Z" transform="translate(-76.91 -833)"/><path class="cls-6" d="M1805.09,1074.58a19.8,19.8,0,0,1-.35,3.54l-3.37,17h-5.49l3.38-17a14.15,14.15,0,0,0,.28-2.51c0-3.95-2.29-6.18-7-6.18-5.89,0-9.89,3.15-11.2,9.66l-3.21,16h-5.49l8.46-42.42h5.49l-3.14,15.67a15.07,15.07,0,0,1,10.69-3.83C1801,1064.52,1805.09,1068.12,1805.09,1074.58Z" transform="translate(-76.91 -833)"/><path class="cls-6" d="M1826,1085.44a7.58,7.58,0,0,0-.17,1.6c0,2.34,1.26,3.77,4,3.77a7.54,7.54,0,0,0,4.35-1.43l1.14,4.17a12.22,12.22,0,0,1-7,1.89c-4.74,0-8-2.86-8-7.6a11.17,11.17,0,0,1,.23-2.29l3.25-16.23h-5.14l.86-4.52h5.2l1.32-6.63h5.49l-1.32,6.63h8.69l-.91,4.52h-8.7Z" transform="translate(-76.91 -833)"/></g></g></g></svg>